# Blender v2.80 (sub 75) OBJ File: 'sala de clases.blend'
# www.blender.org
mtllib sala.mtl
o Cube_Cube.001
v -3.469114 0.004923 4.500000
v -3.500000 2.504923 4.500000
v -3.469114 0.004923 -4.476282
v -3.500000 2.504923 -4.500000
v 3.479795 0.004923 4.500000
v 3.500000 2.504923 4.500000
v 3.479795 0.004923 -4.476282
v 3.500000 2.504923 -4.500000
v -3.500000 0.714527 4.500000
v -3.500000 0.874846 4.500000
v -3.500000 0.874846 -4.500000
v -3.500000 0.714527 -4.500000
v 3.500000 0.977883 -4.129065
v 3.500000 0.714527 -4.500000
v 3.500000 0.874846 4.500000
v 3.500000 0.714527 4.500000
v -3.450322 0.714527 4.547582
v -3.450322 0.874846 4.547582
v -3.450322 0.874846 -4.452418
v -3.450322 0.714527 -4.452418
v 3.450322 0.874846 -4.452418
v 3.450322 0.714527 -4.452418
v 3.450322 0.874846 4.547582
v 3.450322 0.714527 4.547582
v 3.500000 2.141396 4.129065
v 3.500000 2.141396 -4.129065
v 3.500000 0.874846 -4.500000
v 3.676222 2.141396 -4.129065
v 3.500000 0.977883 4.129065
v 3.676222 2.141396 4.129065
v 3.676222 0.977883 4.129065
v 3.676222 0.977883 -4.129065
v -3.469114 0.085969 -4.476282
v 3.479795 0.085969 -4.476282
v 3.479795 0.085969 4.500000
v -3.469114 0.085969 4.500000
v -3.500000 0.093291 4.500000
v -3.500000 0.093291 -4.500000
v 3.500000 0.093291 -4.500000
v 3.500000 0.093291 4.500000
vt 0.541667 0.000000
vt 0.541667 0.250000
vt 0.625000 0.250000
vt 0.625000 0.000000
vt 0.541667 0.500000
vt 0.625000 0.500000
vt 0.619732 0.739696
vt 0.625000 0.750000
vt 0.619732 0.510304
vt 0.546934 0.510304
vt 0.546934 0.739696
vt 0.541667 0.750000
vt 0.546934 0.510304
vt 0.619732 0.510304
vt 0.010854 0.243183
vt 0.995520 0.243183
vt 0.995520 0.610439
vt 0.010854 0.610439
vt 0.006834 0.632899
vt 0.972300 0.632899
vt 0.972300 0.992994
vt 0.006834 0.992994
vt 0.165587 0.000041
vt 0.165587 0.999959
vt 0.000041 0.999959
vt 0.000041 0.000041
vt 0.546934 0.739696
vt 0.619732 0.739696
vt -3.323086 0.586947
vt -3.323086 0.586947
vt -10.951864 0.586947
vt -10.951864 0.586947
vt 4.305700 0.349385
vt 4.305700 0.349385
vt 11.934478 0.349385
vt 11.934478 0.349385
vt 4.305700 0.586947
vt 11.934478 0.586947
vt -3.323086 0.349385
vt -10.951865 0.349385
vt 4.305700 0.586947
vt 11.934478 0.586947
vt -10.951865 0.349385
vt -3.323086 0.349385
vt 0.064190 0.547866
vt 0.346393 0.547866
vt 0.346393 0.442247
vt 0.064190 0.442248
vt 0.628597 0.547866
vt 0.628597 0.442247
vt 0.910800 0.547866
vt 0.910800 0.442247
vt 0.346393 0.389438
vt 0.064190 0.389438
vt 0.628597 0.389438
vt 0.910800 0.389438
vt 2.985478 -1.999501
vt 2.985478 2.999501
vt -1.990151 2.999501
vt -1.990152 -1.999501
vn 1.0000 0.0000 0.0000
vn 0.0000 0.0000 1.0000
vn -1.0000 0.0000 0.0000
vn 0.0000 -1.0000 0.0000
vn 0.0000 0.0000 -1.0000
vn 0.0000 1.0000 0.0000
vn 0.2307 0.9730 0.0000
vn 0.0000 0.9555 0.2950
vn -0.3407 0.9402 0.0000
usemtl pared
s off
f 10/1/1 11/2/1 4/3/1 2/4/1
f 11/2/2 27/5/2 8/6/2 4/3/2
f 25/7/3 6/8/3 8/6/3 26/9/3
f 26/9/3 8/6/3 27/5/3 13/10/3
f 29/11/3 15/12/3 6/8/3 25/7/3
f 13/10/3 27/5/3 15/12/3 29/11/3
f 2/4/4 4/3/4 8/6/4 6/8/4
usemtl pared2
f 13/10/2 32/13/2 28/14/2 26/9/2
f 39/15/3 40/16/3 16/17/3 14/18/3
f 38/19/2 39/20/2 14/21/2 12/22/2
f 37/23/1 38/24/1 12/25/1 9/26/1
f 32/13/3 31/27/3 30/28/3 28/14/3
f 26/9/4 28/14/4 30/28/4 25/7/4
f 25/7/5 30/28/5 31/27/5 29/11/5
f 29/11/6 31/27/6 32/13/6 13/10/6
usemtl madera
f 12/29/4 20/30/4 17/31/4 9/32/4
f 27/33/6 21/34/6 23/35/6 15/36/6
f 22/37/3 24/38/3 23/35/3 21/34/3
f 20/30/2 22/37/2 21/34/2 19/39/2
f 17/31/1 20/30/1 19/39/1 18/40/1
f 14/41/4 22/37/4 20/30/4 12/29/4
f 16/42/4 24/38/4 22/37/4 14/41/4
f 10/43/6 18/40/6 19/39/6 11/44/6
f 11/44/6 19/39/6 21/34/6 27/33/6
f 1/45/1 3/46/1 33/47/1 36/48/1
f 3/46/2 7/49/2 34/50/2 33/47/2
f 7/49/3 5/51/3 35/52/3 34/50/3
f 36/48/7 33/47/7 38/53/7 37/54/7
f 33/47/8 34/50/8 39/55/8 38/53/8
f 34/50/9 35/52/9 40/56/9 39/55/9
usemtl piso
f 3/57/6 1/58/6 5/59/6 7/60/6
