# Blender v2.80 (sub 75) OBJ File: 'sala de clases.blend'
# www.blender.org
mtllib mapa.mtl
o mapa_Cube.007
v -3.500000 1.200498 -1.939398
v -3.500000 2.160888 -1.939398
v -3.500000 1.200498 -3.705310
v -3.500000 2.160888 -3.705310
v -3.460973 1.235426 -1.965122
v -3.460973 2.123485 -1.965122
v -3.460973 1.235426 -3.679585
v -3.460973 2.123485 -3.679585
v -3.460973 2.160888 -3.705310
v -3.460973 1.200498 -3.705310
v -3.460973 1.200498 -1.939398
v -3.460973 2.160888 -1.939398
v -3.471469 2.123485 -3.679585
v -3.471469 1.235426 -3.679585
v -3.471469 1.235426 -1.965122
v -3.471469 2.123485 -1.965122
vt 0.375000 0.000000
vt 0.625000 0.000000
vt 0.625000 0.250000
vt 0.375000 0.250000
vt 0.625000 0.500000
vt 0.375000 0.500000
vt 0.618155 0.503642
vt 0.618155 0.746358
vt 0.618155 0.746358
vt 0.618155 0.503642
vt 0.375000 0.750000
vt 0.625000 0.750000
vt 0.625000 1.000000
vt 0.375000 1.000000
vt 0.125000 0.500000
vt 0.125000 0.750000
vt 0.875000 0.500000
vt 0.875000 0.750000
vt 0.381845 0.503642
vt 0.381845 0.746358
vt 0.381845 0.503642
vt 0.381845 0.746358
vt 0.999907 0.000093
vt 0.999907 0.999543
vt 0.000093 0.999543
vt 0.000093 0.000093
vn -1.0000 0.0000 0.0000
vn 0.0000 0.0000 -1.0000
vn 0.0000 -1.0000 0.0000
vn 0.0000 0.0000 1.0000
vn 0.0000 1.0000 0.0000
vn 1.0000 0.0000 0.0000
usemtl madera
s off
f 1/1/1 2/2/1 4/3/1 3/4/1
f 3/4/2 4/3/2 9/5/2 10/6/2
f 8/7/3 6/8/3 16/9/3 13/10/3
f 11/11/4 12/12/4 2/13/4 1/14/4
f 3/15/3 10/6/3 11/11/3 1/16/3
f 9/5/5 4/17/5 2/18/5 12/12/5
f 8/7/6 7/19/6 10/6/6 9/5/6
f 7/19/6 5/20/6 11/11/6 10/6/6
f 6/8/6 8/7/6 9/5/6 12/12/6
f 5/20/6 6/8/6 12/12/6 11/11/6
f 7/19/4 8/7/4 13/10/4 14/21/4
f 6/8/2 5/20/2 15/22/2 16/9/2
f 5/20/5 7/19/5 14/21/5 15/22/5
usemtl mapa
f 14/23/6 13/24/6 16/25/6 15/26/6
