# Blender v2.80 (sub 75) OBJ File: 'sala de clases.blend'
# www.blender.org
mtllib reloj.mtl
o reloj_Circle.002
v -0.791413 2.343326 -4.500000
v -0.841634 2.338380 -4.500000
v -0.889924 2.323731 -4.500000
v -0.934429 2.299942 -4.500000
v -0.973438 2.267929 -4.500000
v -1.005451 2.228920 -4.500000
v -1.029240 2.184415 -4.500000
v -1.043888 2.136125 -4.500000
v -1.048835 2.085904 -4.500000
v -1.043888 2.035684 -4.500000
v -1.029240 1.987393 -4.500000
v -1.005451 1.942889 -4.500000
v -0.973438 1.903880 -4.500000
v -0.934429 1.871866 -4.500000
v -0.889924 1.848078 -4.500000
v -0.841634 1.833429 -4.500000
v -0.791413 1.828483 -4.500000
v -0.741193 1.833429 -4.500000
v -0.692902 1.848078 -4.500000
v -0.648397 1.871866 -4.500000
v -0.609389 1.903880 -4.500000
v -0.577375 1.942889 -4.500000
v -0.553587 1.987394 -4.500000
v -0.538938 2.035684 -4.500000
v -0.533992 2.085905 -4.500000
v -0.538938 2.136125 -4.500000
v -0.553587 2.184416 -4.500000
v -0.577375 2.228920 -4.500000
v -0.609389 2.267929 -4.500000
v -0.648398 2.299943 -4.500000
v -0.692903 2.323731 -4.500000
v -0.741193 2.338380 -4.500000
v -0.836483 2.312488 -4.461832
v -0.791413 2.316927 -4.461832
v -0.879822 2.299341 -4.461832
v -0.919762 2.277992 -4.461832
v -0.954771 2.249262 -4.461832
v -0.983501 2.214254 -4.461832
v -1.004850 2.174313 -4.461832
v -1.017997 2.130975 -4.461832
v -1.022436 2.085904 -4.461832
v -1.017997 2.040834 -4.461832
v -1.004850 1.997496 -4.461832
v -0.983501 1.957555 -4.461832
v -0.954771 1.922547 -4.461832
v -0.919762 1.893816 -4.461832
v -0.879822 1.872467 -4.461832
v -0.836483 1.859321 -4.461832
v -0.791413 1.854882 -4.461832
v -0.746343 1.859321 -4.461832
v -0.703005 1.872468 -4.461832
v -0.663064 1.893816 -4.461832
v -0.628056 1.922547 -4.461832
v -0.599325 1.957555 -4.461832
v -0.577976 1.997496 -4.461832
v -0.564830 2.040834 -4.461832
v -0.560391 2.085905 -4.461832
v -0.564830 2.130975 -4.461832
v -0.577976 2.174313 -4.461832
v -0.599325 2.214254 -4.461832
v -0.628056 2.249262 -4.461832
v -0.663064 2.277993 -4.461832
v -0.703005 2.299341 -4.461832
v -0.746343 2.312488 -4.461832
v -0.841634 2.338380 -4.461832
v -0.791413 2.343326 -4.461832
v -0.889924 2.323731 -4.461832
v -0.934429 2.299942 -4.461832
v -0.973438 2.267929 -4.461832
v -1.005451 2.228920 -4.461832
v -1.029240 2.184415 -4.461832
v -1.043888 2.136125 -4.461832
v -1.048835 2.085904 -4.461832
v -1.043888 2.035684 -4.461832
v -1.029240 1.987393 -4.461832
v -1.005451 1.942889 -4.461832
v -0.973438 1.903880 -4.461832
v -0.934429 1.871866 -4.461832
v -0.889924 1.848078 -4.461832
v -0.841634 1.833429 -4.461832
v -0.791413 1.828483 -4.461832
v -0.741193 1.833429 -4.461832
v -0.692902 1.848078 -4.461832
v -0.648397 1.871866 -4.461832
v -0.609389 1.903880 -4.461832
v -0.577375 1.942889 -4.461832
v -0.553587 1.987394 -4.461832
v -0.538938 2.035684 -4.461832
v -0.533992 2.085905 -4.461832
v -0.538938 2.136125 -4.461832
v -0.553587 2.184416 -4.461832
v -0.577375 2.228920 -4.461832
v -0.609389 2.267929 -4.461832
v -0.648398 2.299943 -4.461832
v -0.692903 2.323731 -4.461832
v -0.741193 2.338380 -4.461832
v -0.836483 2.312488 -4.470408
v -0.791413 2.316927 -4.470408
v -0.879822 2.299341 -4.470408
v -0.919762 2.277992 -4.470408
v -0.954771 2.249262 -4.470408
v -0.983501 2.214254 -4.470408
v -1.004850 2.174313 -4.470408
v -1.017997 2.130975 -4.470408
v -1.022436 2.085904 -4.470408
v -1.017997 2.040834 -4.470408
v -1.004850 1.997496 -4.470408
v -0.983501 1.957555 -4.470408
v -0.954771 1.922547 -4.470408
v -0.919762 1.893816 -4.470408
v -0.879822 1.872467 -4.470408
v -0.836483 1.859321 -4.470408
v -0.791413 1.854882 -4.470408
v -0.746343 1.859321 -4.470408
v -0.703005 1.872468 -4.470408
v -0.663064 1.893816 -4.470408
v -0.628056 1.922547 -4.470408
v -0.599325 1.957555 -4.470408
v -0.577976 1.997496 -4.470408
v -0.564830 2.040834 -4.470408
v -0.560391 2.085905 -4.470408
v -0.564830 2.130975 -4.470408
v -0.577976 2.174313 -4.470408
v -0.599325 2.214254 -4.470408
v -0.628056 2.249262 -4.470408
v -0.663064 2.277993 -4.470408
v -0.703005 2.299341 -4.470408
v -0.746343 2.312488 -4.470408
vt 0.000000 0.000000
vt 0.000000 0.000000
vt 0.000000 0.000000
vt 0.000000 0.000000
vt 0.000000 0.000000
vt 0.000000 0.000000
vt 0.000000 0.000000
vt 0.000000 0.000000
vt 0.000000 0.000000
vt 0.000000 0.000000
vt 0.000000 0.000000
vt 0.000000 0.000000
vt 0.000000 0.000000
vt 0.000000 0.000000
vt 0.000000 0.000000
vt 0.000000 0.000000
vt 0.000000 0.000000
vt 0.000000 0.000000
vt 0.000000 0.000000
vt 0.000000 0.000000
vt 0.000000 0.000000
vt 0.000000 0.000000
vt 0.000000 0.000000
vt 0.000000 0.000000
vt 0.000000 0.000000
vt 0.000000 0.000000
vt 0.000000 0.000000
vt 0.000000 0.000000
vt 0.000000 0.000000
vt 0.000000 0.000000
vt 0.000000 0.000000
vt 0.000000 0.000000
vt 0.660512 0.086798
vt 0.738040 0.126052
vt 0.738040 0.126052
vt 0.660512 0.086798
vt 0.027526 0.643757
vt 0.010829 0.549439
vt 0.049339 0.545733
vt 0.064486 0.631819
vt 0.881625 0.185281
vt 0.936416 0.265890
vt 0.901927 0.287802
vt 0.851579 0.214451
vt 0.012244 0.453987
vt 0.051206 0.457247
vt 0.974174 0.355573
vt 0.936569 0.369368
vt 0.028540 0.360908
vt 0.065463 0.371002
vt 0.993428 0.450851
vt 0.954150 0.455990
vt 0.062447 0.271953
vt 0.096972 0.290202
vt 0.993428 0.548030
vt 0.953983 0.544312
vt 0.113839 0.191152
vt 0.144523 0.217206
vt 0.974174 0.643345
vt 0.936073 0.630916
vt 0.180775 0.121976
vt 0.206285 0.154788
vt 0.936416 0.733101
vt 0.901119 0.712449
vt 0.260542 0.067263
vt 0.279810 0.105473
vt 0.881626 0.813817
vt 0.850490 0.785755
vt 0.349937 0.029219
vt 0.362171 0.071266
vt 0.811952 0.882354
vt 0.786171 0.848000
vt 0.445400 0.009374
vt 0.450097 0.053558
vt 0.351904 0.972787
vt 0.262675 0.935860
vt 0.279997 0.897073
vt 0.361934 0.930663
vt 0.730151 0.936043
vt 0.710702 0.896791
vt 0.543146 0.008535
vt 0.540105 0.053083
vt 0.182647 0.882078
vt 0.206554 0.848201
vt 0.639512 0.972815
vt 0.627076 0.930289
vt 0.639311 0.026758
vt 0.628636 0.069889
vt 0.115063 0.813554
vt 0.144594 0.785992
vt 0.543756 0.991370
vt 0.538590 0.947312
vt 0.730101 0.063346
vt 0.712197 0.103344
vt 0.062661 0.733026
vt 0.096607 0.712911
vt 0.446816 0.991465
vt 0.449216 0.947633
vt 0.811944 0.116880
vt 0.787498 0.152161
vt 0.423183 0.936577
vt 0.509831 0.943174
vt 0.510955 0.993816
vt 0.414406 0.986465
vt 0.339488 0.913202
vt 0.321146 0.960418
vt 0.261960 0.873948
vt 0.234760 0.916680
vt 0.193580 0.820323
vt 0.158566 0.856927
vt 0.136976 0.754389
vt 0.095493 0.783458
vt 0.094323 0.678678
vt 0.047966 0.699096
vt 0.067259 0.596101
vt 0.017810 0.607083
vt 0.056826 0.509831
vt 0.006184 0.510954
vt 0.063423 0.423184
vt 0.013535 0.414406
vt 0.086798 0.339487
vt 0.039582 0.321145
vt 0.126052 0.261960
vt 0.083321 0.234759
vt 0.179677 0.193580
vt 0.143073 0.158565
vt 0.245611 0.136976
vt 0.216542 0.095493
vt 0.321322 0.094322
vt 0.300904 0.047966
vt 0.403899 0.067259
vt 0.392918 0.017810
vt 0.490169 0.056825
vt 0.489046 0.006184
vt 0.576816 0.063423
vt 0.585594 0.013535
vt 0.678854 0.039581
vt 0.765241 0.083321
vt 0.806420 0.179677
vt 0.841435 0.143074
vt 0.863024 0.245611
vt 0.904507 0.216542
vt 0.905677 0.321322
vt 0.952034 0.300905
vt 0.932741 0.403900
vt 0.982190 0.392918
vt 0.943174 0.490169
vt 0.993816 0.489046
vt 0.936577 0.576817
vt 0.986464 0.585595
vt 0.913202 0.660513
vt 0.960418 0.678855
vt 0.873948 0.738040
vt 0.916680 0.765240
vt 0.820323 0.806420
vt 0.856926 0.841435
vt 0.754389 0.863024
vt 0.783458 0.904507
vt 0.678678 0.905677
vt 0.699096 0.952035
vt 0.596101 0.932741
vt 0.607082 0.982190
vt 0.423183 0.936577
vt 0.339488 0.913202
vt 0.261960 0.873948
vt 0.193580 0.820323
vt 0.136976 0.754389
vt 0.094323 0.678678
vt 0.067259 0.596101
vt 0.056826 0.509831
vt 0.063423 0.423184
vt 0.086798 0.339487
vt 0.126052 0.261960
vt 0.179677 0.193580
vt 0.245611 0.136976
vt 0.321322 0.094322
vt 0.403899 0.067259
vt 0.490169 0.056825
vt 0.576816 0.063423
vt 0.806420 0.179677
vt 0.863024 0.245611
vt 0.905677 0.321322
vt 0.932741 0.403900
vt 0.943174 0.490169
vt 0.936577 0.576817
vt 0.913202 0.660513
vt 0.873948 0.738040
vt 0.820323 0.806420
vt 0.754389 0.863024
vt 0.678678 0.905677
vt 0.596101 0.932741
vt 0.509831 0.943174
vn -0.0000 0.0000 -1.0000
vn -0.4714 0.8819 0.0000
vn -0.8819 0.4714 0.0000
vn 0.6344 -0.7730 0.0000
vn -0.9569 0.2903 0.0000
vn 0.7730 -0.6344 0.0000
vn -0.9952 0.0980 0.0000
vn 0.8819 -0.4714 0.0000
vn -0.9952 -0.0980 0.0000
vn 0.9569 -0.2903 0.0000
vn -0.9569 -0.2903 0.0000
vn 0.9952 -0.0980 0.0000
vn -0.8819 -0.4714 0.0000
vn 0.9952 0.0980 0.0000
vn -0.7730 -0.6344 0.0000
vn 0.9569 0.2903 0.0000
vn -0.6344 -0.7730 0.0000
vn 0.8819 0.4714 0.0000
vn -0.4714 -0.8819 0.0000
vn -0.0980 0.9952 0.0000
vn 0.7730 0.6344 0.0000
vn -0.2903 -0.9569 0.0000
vn -0.2903 0.9569 0.0000
vn 0.6344 0.7730 0.0000
vn -0.0980 -0.9952 0.0000
vn 0.4714 0.8819 0.0000
vn 0.0980 -0.9952 0.0000
vn -0.6344 0.7730 0.0000
vn 0.2903 0.9569 0.0000
vn 0.2903 -0.9569 0.0000
vn -0.7730 0.6344 0.0000
vn 0.0980 0.9952 0.0000
vn 0.4714 -0.8819 0.0000
vn -0.0000 0.0000 1.0000
usemtl reloj
s off
f 2/1/1 1/2/1 32/3/1 31/4/1 30/5/1 29/6/1 28/7/1 27/8/1 26/9/1 25/10/1 24/11/1 23/12/1 22/13/1 21/14/1 20/15/1 19/16/1 18/17/1 17/18/1 16/19/1 15/20/1 14/21/1 13/22/1 12/23/1 11/24/1 10/25/1 9/26/1 8/27/1 7/28/1 6/29/1 5/30/1 4/31/1 3/32/1
f 51/33/2 52/34/2 116/35/2 115/36/2
f 6/37/3 7/38/3 71/39/3 70/40/3
f 20/41/4 21/42/4 85/43/4 84/44/4
f 7/38/5 8/45/5 72/46/5 71/39/5
f 21/42/6 22/47/6 86/48/6 85/43/6
f 8/45/7 9/49/7 73/50/7 72/46/7
f 22/47/8 23/51/8 87/52/8 86/48/8
f 9/49/9 10/53/9 74/54/9 73/50/9
f 23/51/10 24/55/10 88/56/10 87/52/10
f 10/53/11 11/57/11 75/58/11 74/54/11
f 24/55/12 25/59/12 89/60/12 88/56/12
f 11/57/13 12/61/13 76/62/13 75/58/13
f 25/59/14 26/63/14 90/64/14 89/60/14
f 12/61/15 13/65/15 77/66/15 76/62/15
f 26/63/16 27/67/16 91/68/16 90/64/16
f 13/65/17 14/69/17 78/70/17 77/66/17
f 27/67/18 28/71/18 92/72/18 91/68/18
f 14/69/19 15/73/19 79/74/19 78/70/19
f 1/75/20 2/76/20 65/77/20 66/78/20
f 28/71/21 29/79/21 93/80/21 92/72/21
f 15/73/22 16/81/22 80/82/22 79/74/22
f 2/76/23 3/83/23 67/84/23 65/77/23
f 29/79/24 30/85/24 94/86/24 93/80/24
f 16/81/25 17/87/25 81/88/25 80/82/25
f 3/83/2 4/89/2 68/90/2 67/84/2
f 30/85/26 31/91/26 95/92/26 94/86/26
f 17/87/27 18/93/27 82/94/27 81/88/27
f 4/89/28 5/95/28 69/96/28 68/90/28
f 31/91/29 32/97/29 96/98/29 95/92/29
f 18/93/30 19/99/30 83/100/30 82/94/30
f 5/95/31 6/37/31 70/40/31 69/96/31
f 32/97/32 1/75/32 66/78/32 96/98/32
f 19/99/33 20/41/33 84/44/33 83/100/33
f 33/101/34 34/102/34 66/103/34 65/104/34
f 35/105/34 33/101/34 65/104/34 67/106/34
f 36/107/34 35/105/34 67/106/34 68/108/34
f 37/109/34 36/107/34 68/108/34 69/110/34
f 38/111/34 37/109/34 69/110/34 70/112/34
f 39/113/34 38/111/34 70/112/34 71/114/34
f 40/115/34 39/113/34 71/114/34 72/116/34
f 41/117/34 40/115/34 72/116/34 73/118/34
f 42/119/34 41/117/34 73/118/34 74/120/34
f 43/121/34 42/119/34 74/120/34 75/122/34
f 44/123/34 43/121/34 75/122/34 76/124/34
f 45/125/34 44/123/34 76/124/34 77/126/34
f 46/127/34 45/125/34 77/126/34 78/128/34
f 47/129/34 46/127/34 78/128/34 79/130/34
f 48/131/34 47/129/34 79/130/34 80/132/34
f 49/133/34 48/131/34 80/132/34 81/134/34
f 50/135/34 49/133/34 81/134/34 82/136/34
f 51/33/34 50/135/34 82/136/34 83/137/34
f 52/34/34 51/33/34 83/137/34 84/138/34
f 53/139/34 52/34/34 84/138/34 85/140/34
f 54/141/34 53/139/34 85/140/34 86/142/34
f 55/143/34 54/141/34 86/142/34 87/144/34
f 56/145/34 55/143/34 87/144/34 88/146/34
f 57/147/34 56/145/34 88/146/34 89/148/34
f 58/149/34 57/147/34 89/148/34 90/150/34
f 59/151/34 58/149/34 90/150/34 91/152/34
f 60/153/34 59/151/34 91/152/34 92/154/34
f 61/155/34 60/153/34 92/154/34 93/156/34
f 62/157/34 61/155/34 93/156/34 94/158/34
f 63/159/34 62/157/34 94/158/34 95/160/34
f 64/161/34 63/159/34 95/160/34 96/162/34
f 34/102/34 64/161/34 96/162/34 66/103/34
f 97/163/34 99/164/34 100/165/34 101/166/34 102/167/34 103/168/34 104/169/34 105/170/34 106/171/34 107/172/34 108/173/34 109/174/34 110/175/34 111/176/34 112/177/34 113/178/34 114/179/34 115/36/34 116/35/34 117/180/34 118/181/34 119/182/34 120/183/34 121/184/34 122/185/34 123/186/34 124/187/34 125/188/34 126/189/34 127/190/34 128/191/34 98/192/34
f 38/111/8 39/113/8 103/168/8 102/167/8
f 52/34/28 53/139/28 117/180/28 116/35/28
f 39/113/10 40/115/10 104/169/10 103/168/10
f 53/139/31 54/141/31 118/181/31 117/180/31
f 40/115/12 41/117/12 105/170/12 104/169/12
f 54/141/3 55/143/3 119/182/3 118/181/3
f 41/117/14 42/119/14 106/171/14 105/170/14
f 55/143/5 56/145/5 120/183/5 119/182/5
f 42/119/16 43/121/16 107/172/16 106/171/16
f 56/145/7 57/147/7 121/184/7 120/183/7
f 43/121/18 44/123/18 108/173/18 107/172/18
f 57/147/9 58/149/9 122/185/9 121/184/9
f 44/123/21 45/125/21 109/174/21 108/173/21
f 58/149/11 59/151/11 123/186/11 122/185/11
f 45/125/24 46/127/24 110/175/24 109/174/24
f 59/151/13 60/153/13 124/187/13 123/186/13
f 46/127/26 47/129/26 111/176/26 110/175/26
f 34/102/27 33/101/27 97/163/27 98/192/27
f 60/153/15 61/155/15 125/188/15 124/187/15
f 47/129/29 48/131/29 112/177/29 111/176/29
f 33/101/30 35/105/30 99/164/30 97/163/30
f 61/155/17 62/157/17 126/189/17 125/188/17
f 48/131/32 49/133/32 113/178/32 112/177/32
f 35/105/33 36/107/33 100/165/33 99/164/33
f 62/157/19 63/159/19 127/190/19 126/189/19
f 49/133/20 50/135/20 114/179/20 113/178/20
f 36/107/4 37/109/4 101/166/4 100/165/4
f 63/159/22 64/161/22 128/191/22 127/190/22
f 50/135/23 51/33/23 115/36/23 114/179/23
f 37/109/6 38/111/6 102/167/6 101/166/6
f 64/161/25 34/102/25 98/192/25 128/191/25
