# Blender v2.80 (sub 75) OBJ File: 'sala de clases.blend'
# www.blender.org
mtllib ventana.mtl
o ventana_Cube.005
v 3.579091 0.977883 -1.392675
v 3.579091 2.141396 -1.392675
v 3.579091 0.977883 -1.422405
v 3.579091 2.141396 -1.422405
v 3.612772 0.977883 -1.392675
v 3.612772 2.141396 -1.392675
v 3.612772 0.977883 -1.422405
v 3.612772 2.141396 -1.422405
v 3.579091 0.996868 -1.392675
v 3.579091 0.996868 -1.422405
v 3.612772 0.996868 -1.422405
v 3.612772 0.996868 -1.392675
v 3.579091 0.996868 -4.129065
v 3.579091 0.977883 -4.129065
v 3.612772 0.977883 -4.129065
v 3.612772 0.996868 -4.129065
v 3.612772 0.996868 4.129064
v 3.612772 0.977883 4.129064
v 3.579091 0.977883 4.129064
v 3.579091 0.996868 4.129064
v 3.579091 2.121129 -1.392675
v 3.579091 2.121129 -1.422405
v 3.612772 2.121129 -1.422405
v 3.612772 2.121129 -1.392675
v 3.579091 2.121129 4.129064
v 3.579091 2.141396 4.129064
v 3.612772 2.141396 4.129064
v 3.612772 2.121129 4.129064
v 3.579091 2.141396 -4.129065
v 3.612772 2.141396 -4.129065
v 3.579091 2.121129 -4.129065
v 3.612772 2.121129 -4.129065
vt 0.562500 0.000000
vt 0.625000 0.000000
vt 0.625000 0.250000
vt 0.562500 0.250000
vt 0.625000 0.250000
vt 0.562500 0.250000
vt 0.562500 0.500000
vt 0.625000 0.500000
vt 0.625000 0.750000
vt 0.562500 0.750000
vt 0.875000 0.750000
vt 0.875000 0.750000
vt 0.625000 0.750000
vt 0.125000 0.500000
vt 0.375000 0.500000
vt 0.375000 0.750000
vt 0.125000 0.750000
vt 0.875000 0.500000
vt 0.500000 0.750000
vt 0.500000 0.750000
vt 0.375000 0.750000
vt 0.500000 0.500000
vt 0.125000 0.500000
vt 0.375000 0.500000
vt 0.375000 0.000000
vt 0.500000 0.000000
vt 0.500000 0.250000
vt 0.375000 0.250000
vt 0.375000 0.250000
vt 0.500000 0.250000
vt 0.500000 0.500000
vt 0.500000 1.000000
vt 0.375000 1.000000
vt 0.500000 1.000000
vt 0.375000 0.000000
vt 0.500000 0.000000
vt 0.125000 0.750000
vt 0.562500 1.000000
vt 0.562500 0.750000
vt 0.625000 1.000000
vt 0.562500 1.000000
vt 0.562500 0.000000
vt 0.625000 0.000000
vt 0.625000 0.500000
vt 0.562500 0.500000
vt 0.875000 0.500000
vt 0.666134 0.000000
vt 0.666134 1.000000
vt 0.000000 1.000000
vt 0.000000 0.000000
vt 0.666134 1.000000
vt 0.000000 1.000000
vt 0.000000 0.000000
vt 0.666134 0.000000
vn -1.0000 0.0000 0.0000
vn 1.0000 0.0000 0.0000
vn 0.0000 1.0000 0.0000
vn 0.0000 -1.0000 0.0000
vn 0.0000 0.0000 -1.0000
vn 0.0000 0.0000 1.0000
usemtl metal
s off
f 21/1/1 2/2/1 4/3/1 22/4/1
f 22/4/1 4/3/1 29/5/1 31/6/1
f 23/7/2 8/8/2 6/9/2 24/10/2
f 6/9/3 2/11/3 26/12/3 27/13/3
f 3/14/4 7/15/4 5/16/4 1/17/4
f 8/8/3 4/18/3 2/11/3 6/9/3
f 5/16/2 12/19/2 17/20/2 18/21/2
f 7/15/2 11/22/2 12/19/2 5/16/2
f 7/15/4 3/14/4 14/23/4 15/24/4
f 1/25/1 9/26/1 10/27/1 3/28/1
f 14/29/5 13/30/5 16/31/5 15/24/5
f 10/27/3 11/22/3 16/31/3 13/30/3
f 3/28/1 10/27/1 13/30/1 14/29/1
f 11/22/2 7/15/2 15/24/2 16/31/2
f 18/21/6 17/20/6 20/32/6 19/33/6
f 12/19/3 9/34/3 20/32/3 17/20/3
f 9/26/1 1/25/1 19/35/1 20/36/1
f 1/17/4 5/16/4 18/21/4 19/37/4
f 12/19/6 24/10/6 21/38/6 9/34/6
f 11/22/2 23/7/2 24/10/2 12/19/2
f 10/27/5 22/4/5 23/7/5 11/22/5
f 9/26/1 21/1/1 22/4/1 10/27/1
f 28/39/6 27/13/6 26/40/6 25/41/6
f 21/38/4 24/10/4 28/39/4 25/41/4
f 2/2/1 21/1/1 25/42/1 26/43/1
f 24/10/2 6/9/2 27/13/2 28/39/2
f 31/6/5 29/5/5 30/44/5 32/45/5
f 23/7/4 22/4/4 31/6/4 32/45/4
f 4/18/3 8/8/3 30/44/3 29/46/3
f 8/8/2 23/7/2 32/45/2 30/44/2
usemtl vidrio
f 16/47/1 11/48/1 23/49/1 32/50/1
f 17/51/1 28/52/1 24/53/1 12/54/1
